<svg width="10" height="22" viewBox="0 0 10 22" fill="none" xmlns="http://www.w3.org/2000/svg">
<path d="M9.53574 4.66337L9.53574 16.9745C9.53574 17.6022 9.41762 18.1895 9.18139 18.7362C8.94516 19.2829 8.62118 19.7621 8.20946 20.1738C7.79773 20.5855 7.31852 20.9095 6.7718 21.1458C6.22509 21.382 5.6345 21.5035 5.00005 21.5102C4.37234 21.5102 3.78513 21.3921 3.23842 21.1559C2.6917 20.9196 2.21249 20.5957 1.80076 20.1839C1.38904 19.7722 1.06506 19.293 0.828831 18.7463C0.592597 18.1996 0.471105 17.609 0.464355 16.9745L0.464355 4.01542C0.464355 3.56995 0.548725 3.15147 0.717463 2.76C0.886202 2.36853 1.11906 2.02768 1.41604 1.73744C1.71302 1.44721 2.05725 1.21436 2.44872 1.03887C2.84019 0.863379 3.25867 0.775635 3.70414 0.775635C4.14961 0.775635 4.56808 0.860004 4.95955 1.02874C5.35102 1.19748 5.69188 1.43034 5.98211 1.72732C6.27234 2.0243 6.5052 2.36853 6.68068 2.76C6.85617 3.15147 6.94392 3.56995 6.94392 4.01542L6.94392 16.9745C6.94392 17.2445 6.89329 17.4976 6.79205 17.7339C6.69081 17.9701 6.55244 18.176 6.37695 18.3514C6.20147 18.5269 5.99561 18.6653 5.75937 18.7665C5.52314 18.8678 5.27003 18.9184 5.00005 18.9184C4.73007 18.9184 4.47696 18.8678 4.24072 18.7665C4.00449 18.6653 3.79863 18.5269 3.62314 18.3514C3.44765 18.176 3.30929 17.9701 3.20804 17.7339C3.1068 17.4976 3.05618 17.2445 3.05618 16.9745L3.05618 5.95928H4.35209L4.35209 16.9745C4.35209 17.15 4.41621 17.3019 4.54445 17.4301C4.6727 17.5584 4.82456 17.6225 5.00005 17.6225C5.17554 17.6225 5.3274 17.5584 5.45564 17.4301C5.58388 17.3019 5.648 17.15 5.648 16.9745L5.648 4.01542C5.648 3.74543 5.59738 3.49233 5.49614 3.25609C5.3949 3.01986 5.25653 2.814 5.08104 2.63851C4.90555 2.46302 4.69969 2.32466 4.46346 2.22341C4.22723 2.12217 3.97412 2.07155 3.70414 2.07155C3.43415 2.07155 3.18105 2.12217 2.94481 2.22341C2.70858 2.32466 2.50272 2.46302 2.32723 2.63851C2.15174 2.814 2.01338 3.01986 1.91213 3.25609C1.81089 3.49233 1.76027 3.74543 1.76027 4.01542L1.76027 16.9745C1.76027 17.42 1.84464 17.8385 2.01338 18.23C2.18211 18.6214 2.41497 18.9623 2.71195 19.2525C3.00893 19.5427 3.35316 19.7756 3.74463 19.9511C4.13611 20.1266 4.55458 20.2143 5.00005 20.2143C5.44552 20.2143 5.86399 20.13 6.25546 19.9612C6.64694 19.7925 6.98779 19.5596 7.27802 19.2626C7.56825 18.9657 7.80111 18.6214 7.9766 18.23C8.15208 17.8385 8.23983 17.42 8.23983 16.9745V4.66337H9.53574Z" fill="#9B468A"/>
</svg>
