<svg width="32" height="32" viewBox="0 0 32 32" fill="none" xmlns="http://www.w3.org/2000/svg">
<path d="M24.1628 18.2798C24.4367 18.9121 24.5961 19.6859 24.6313 20.5806C25.5558 20.7924 26.2476 21.6193 26.2476 22.6068C26.2476 23.7537 25.3145 24.6868 24.1676 24.6868C23.0207 24.6868 22.0876 23.7537 22.0876 22.6068C22.0876 21.6305 22.7644 20.8123 23.6726 20.5886C23.6326 19.6999 23.4201 18.3479 22.5503 17.6804C22.1065 17.5655 21.6502 17.4823 21.182 17.4395C21.1474 18.9963 16.0018 22.8382 16.0018 22.8382C16.0018 22.8382 10.8546 18.9969 10.8198 17.4401C10.2998 17.4875 9.79383 17.5825 9.30519 17.7195C8.67063 18.2219 8.34231 19.1579 8.32535 20.5185C8.51191 20.6257 8.66263 20.7931 8.75511 20.9956C9.43863 21.3185 10.0425 21.9975 10.5049 22.9643C10.5823 23.1268 10.5926 23.3105 10.5356 23.4782C10.8127 24.1915 10.9711 24.971 10.9711 25.6257C10.9711 26.5431 10.9711 27.4107 9.97111 27.6334C9.86295 27.7233 9.72727 27.7729 9.58487 27.7729H8.91671C8.58167 27.7729 8.30903 27.4996 8.30903 27.1655L8.30967 27.1419C8.32247 26.8187 8.59287 26.5579 8.91671 26.5579H9.58487C9.65335 26.5579 9.72023 26.5694 9.78487 26.5918C9.82519 26.5806 9.83799 26.5713 9.83831 26.571C9.91255 26.4391 9.91255 25.89 9.91255 25.6263C9.91255 25.0945 9.77943 24.4523 9.54615 23.8555C9.42519 23.7867 9.32727 23.6827 9.26711 23.5569C8.86199 22.7086 8.31095 22.1607 7.86359 22.1607C7.40599 22.1607 6.82743 22.7534 6.42391 23.634C6.35799 23.7777 6.24247 23.8945 6.10039 23.9646C5.88951 24.5355 5.77367 25.1233 5.77367 25.626C5.77367 25.8475 5.77367 26.435 5.85815 26.5732C5.85911 26.5732 5.87799 26.5847 5.93111 26.5979C6.00023 26.5713 6.07447 26.5575 6.14871 26.5575H6.81815C7.13015 26.5575 7.39095 26.795 7.42231 27.1038L7.42551 27.1412C7.42551 27.4999 7.15287 27.7732 6.81815 27.7732H6.14871C6.01591 27.7732 5.88759 27.7287 5.78199 27.6481C5.39959 27.5761 5.13015 27.4075 4.95959 27.1329C4.75287 26.8011 4.71511 26.3652 4.71511 25.626C4.71511 24.9777 4.86487 24.2308 5.13687 23.5175C5.09687 23.3649 5.11031 23.2055 5.17687 23.0619C5.46007 22.4423 5.82039 21.9118 6.21847 21.5281C6.43735 21.3172 6.67255 21.1476 6.91863 21.0238C7.01079 20.8081 7.17079 20.6311 7.36631 20.5195C7.37655 19.6667 7.50775 18.9303 7.75031 18.3233C4.97335 19.7319 3.07031 22.6129 3.07031 25.9399C3.07031 30.1915 6.17655 30.3995 10.2428 30.3995C10.6866 30.3995 11.141 30.3969 11.6054 30.3969H20.3948C20.8585 30.3969 21.3129 30.3995 21.7567 30.3995C25.8236 30.3995 28.9311 30.1915 28.9311 25.9399C28.9308 22.5777 26.9871 19.6715 24.1628 18.2798Z" fill="white"/>
<path d="M16.0032 18.557C19.9341 18.557 23.1203 12.6463 23.1203 8.71577C23.1203 4.78585 19.9341 1.59961 16.0032 1.59961C12.073 1.59961 8.88672 4.78585 8.88672 8.71577C8.88672 12.6463 12.073 18.557 16.0032 18.557Z" fill="white"/>
<path d="M24.167 23.5665C24.6972 23.5665 25.127 23.1367 25.127 22.6065C25.127 22.0763 24.6972 21.6465 24.167 21.6465C23.6368 21.6465 23.207 22.0763 23.207 22.6065C23.207 23.1367 23.6368 23.5665 24.167 23.5665Z" fill="white"/>
</svg>
